<svg t="1742432755922" class="icon" viewBox="0 0 1169 1024" version="1.1" xmlns="http://www.w3.org/2000/svg" p-id="4600" width="200" height="200"><path d="M1159.614774 348.628981L982.158988 68.363679a52.771906 52.771906 0 0 0-71.091686-16.405773L24.335231 612.215079a52.498476 52.498476 0 0 0-15.585485 72.185405L185.385243 964.118926a52.771906 52.771906 0 0 0 72.458834 16.132344l885.364923-559.983744a52.498476 52.498476 0 0 0 16.405774-71.638545z m-35.545843 42.108153L238.704008 950.174018a16.405774 16.405774 0 0 1-22.968083-4.921732L38.280139 665.260414a16.405774 16.405774 0 0 1 5.195161-22.968083L928.840223 82.308587a16.679203 16.679203 0 0 1 23.241513 5.195162l177.729216 279.718442a17.226062 17.226062 0 0 1-5.742021 22.968083zM360.927022 211.9142l14.765197 35.272413 18.86664-33.084977 38.006709-2.187436-25.42895-27.342957 8.749746-37.18642-34.998984 15.585485-32.538118-19.686928 4.101444 38.006709-28.983534 24.60866z m225.30596-104.996952l-18.319781-31.717829-15.312055 34.998984-37.73328 7.109168 27.342956 25.428949-4.921732 38.00671 33.084977-19.14007 34.725555 16.405774-7.929458-37.45985 27.342956-27.342956z m343.70096 563.264898l-30.077252-23.514942v38.280139l-31.4444 21.327506 36.366132 12.0309 10.663753 36.639562 22.968083-30.897541h38.006709l-22.421224-30.89754 11.757471-34.725555z m-123.316733 152.026837l-14.491767-36.092702-19.413499 33.084977-38.006709 2.734295 25.428949 27.342957-9.023175 37.18642 34.998984-15.312055 32.538118 20.233787-3.828014-38.006709 28.983534-24.88209z m-226.399678 103.356375l18.046351 33.631836 15.858915-34.725555 37.73328-6.835739-27.342957-25.702379 5.195162-38.006709-33.084977 18.86664-34.452125-16.679203 7.656028 37.45985-27.342956 27.342956zM241.164874 360.386452l30.077252 23.788372v-38.280139l31.717829-21.327506-36.366132-12.30433-10.390323-36.639561-22.694654 30.624111h-38.280138l22.147794 30.89754-13.124619 36.092703z m-134.527345 164.057738a475.767439 475.767439 0 0 1 690.136216-437.4873l34.998984-22.147795a515.961584 515.961584 0 0 0-136.714781-52.225046 511.860141 511.860141 0 0 0-623.419403 534.554794z m950.988018-24.882091a475.494009 475.494009 0 0 1-689.862786 437.4873l-34.998984 22.147795a516.508443 516.508443 0 0 0 332.216919 57.967067 512.13357 512.13357 0 0 0 426.550117-538.656238zM433.385856 277.810724a278.624724 278.624724 0 0 1 131.24619-42.381582l54.685913-34.178695a314.717426 314.717426 0 0 0-334.130925 211.361052l54.685912-34.178696a280.265301 280.265301 0 0 1 93.51291-100.622079z m297.764794 470.025418a275.616999 275.616999 0 0 1-131.24619 42.381582l-54.685913 34.178695a313.897138 313.897138 0 0 0 334.130926-211.361051l-54.685913 34.178695a276.984147 276.984147 0 0 1-93.51291 100.622079z" p-id="4601"></path><path d="M207.806467 587.606418a19.140069 19.140069 0 0 1 0 8.476317c0 2.460866 0 4.921732-1.640577 6.835739s0 9.023176 0 12.030901c0 18.86664-2.187436 32.811547-3.554584 42.381582a386.082542 386.082542 0 0 1-10.663753 46.756455c-3.007725 11.210612-6.01545 16.679203-8.749746 16.132344l-16.132344-4.648302-13.944908-3.281155 8.202887-27.342956a263.586098 263.586098 0 0 0 11.484041-37.186421l4.101444-21.600935a109.371825 109.371825 0 0 0 0-31.17097 56.05306 56.05306 0 0 1-2.734296-9.296605c0-2.734296 0-4.101443 2.460866-4.648303a113.199839 113.199839 0 0 1 16.679204 0c9.023176 2.734296 14.218337 4.374873 14.491766 6.562309z m94.880059-3.281154c-8.749746 5.468591-16.679203 10.937182-23.788372 15.858914s-14.218337 10.663753-22.147795 16.132344l-3.281155 2.187437a2.187436 2.187436 0 0 1-3.554584 0l-15.585485-23.788372a2.187436 2.187436 0 0 1 0-3.281155l3.554584-2.187436c8.476316-4.374873 16.952633-9.296605 27.342957-14.491767l22.421224-13.124619-17.499492-27.342956-2.460866-2.460866a4.101443 4.101443 0 0 1-1.914007-3.828014 15.312055 15.312055 0 0 1 4.648302-3.828014 181.830659 181.830659 0 0 1 16.679204-8.749746c6.28888-2.734296 10.116894-3.828014 11.210612-3.281155s1.367148 2.460866 1.367147 5.742021a11.757471 11.757471 0 0 0 0 6.835739l13.124619 20.780647c9.023176-5.742021 16.952633-11.210612 23.788372-16.132344l22.147795-16.679204 4.921732-3.554584h2.734296l15.585485 24.88209v3.281155l-4.921732 2.734296-27.342957 14.218337c-8.476316 4.921732-15.858915 9.023176-21.874365 12.851189l19.413499 30.897541c7.656028-4.921732 16.132344-10.390323 25.42895-16.952633l39.100427-27.342956a23.514942 23.514942 0 0 1 4.921732-3.281155 1.640577 1.640577 0 0 1 2.734296 0l15.038626 23.514942v3.281155l-4.648303 2.734296c-6.562309 4.374873-19.686928 12.030901-39.373857 23.514942s-33.358407 19.413499-41.014434 24.335231-21.600935 13.944908-39.920716 27.342956-30.350681 20.780647-36.092703 24.335231l-3.554584 2.187437a2.187436 2.187436 0 0 1-3.281155 0l-13.944907-21.874365-1.640578 6.01545v13.671478c0 10.663753-1.914007 19.960358-2.734295 27.342957l19.960358 33.358406 18.31978 30.624111c8.476316 13.398049 17.772922 27.342956 27.342957 42.655012a330.576341 330.576341 0 0 0 20.507217 27.342956 2.734296 2.734296 0 0 1 0 4.101444l-27.342956 16.952633q-2.460866 1.640577-4.101444-1.640578l-15.312055-27.342956q-13.944908-25.15552-27.342957-45.936167l-22.147794-33.084977c-5.195162 21.874365-9.843464 32.264688-13.398049 31.4444l-16.679203-4.374873c-6.562309-1.640577-11.210612-2.460866-14.491767-3.007725 3.281155-9.296605 6.562309-18.59321 9.570035-27.342956a252.922345 252.922345 0 0 0 11.210612-37.186421 282.999597 282.999597 0 0 0 5.742021-29.803822 87.77089 87.77089 0 0 0 0-25.15552 75.739989 75.739989 0 0 1-1.093719-9.023175c0-2.734296 0-4.374873 2.734296-4.648303a65.076236 65.076236 0 0 1 17.772922 0c9.296605 0 14.491767 2.734296 14.765196 4.648303v4.101443h2.187437l39.100427-22.968083 27.342956-15.858915z m116.207564 41.287864l27.342956-19.413499 4.648302-3.281155h3.007726l16.132344 25.702379v3.007725l-4.648303 2.734296-30.077252 18.046351 42.381582 67.810531a27.342956 27.342956 0 0 1 3.828014 11.210612 25.15552 25.15552 0 0 1-2.460866 16.132344 42.655012 42.655012 0 0 1-7.929457 10.116894 82.028869 82.028869 0 0 1-11.210612 8.749746c-4.921732 3.281155-7.656028 4.374873-8.202887 3.554585a106.09067 106.09067 0 0 0-20.780647-13.944908l-2.734295-2.460866h1.640577l4.374873-2.734296 4.648303-3.007725a67.537102 67.537102 0 0 0 11.210612-8.202887c0-1.640577 0-4.648303-2.734296-9.570035l-4.374873-6.562309-34.452125-54.685913-22.968083 13.944908c-7.109169 4.374873-20.233788 13.124619-38.826998 25.975809s-31.991259 21.874365-39.373857 27.342956l-3.281155 1.914007H300.772519l-15.858915-25.15552v-3.281155l3.554584-2.460866 29.256963-17.226062c29.530393-16.679203 46.756455-27.342956 52.225047-30.350682l21.054076-14.218337-9.023175-12.57776-3.554585-3.828014-2.734295-3.007725q-2.460866-3.554584 3.281154-8.202887l7.929458-4.648302c12.30433-6.562309 19.960358-9.296605 22.968083-7.929458s1.640577 2.187436 1.367148 4.921733a8.202887 8.202887 0 0 0 0 5.195161z m-17.772922 112.37955a70.271398 70.271398 0 0 1-9.843464 13.671478c-4.648303 5.742021-7.382598 9.570035-8.476317 11.210612l-18.59321-10.663753a261.945521 261.945521 0 0 0-27.342956-15.312056v-1.914006a52.225046 52.225046 0 0 1 7.382598-11.210612l7.929457-11.210613h2.734296a251.828627 251.828627 0 0 1 31.17097 15.038626c10.116894 3.828014 14.765196 8.476316 13.671478 10.390324zM626.700557 340.152664l19.960358-14.218337h3.828014l17.499492 27.342956a157.768857 157.768857 0 0 0 15.312055 21.054077c1.640577 2.187436 0 4.101443-1.367147 5.742021l-21.054077 13.398048c-2.187436 1.367148-3.828014 0-5.468591-1.640577l-16.679203-27.342956-182.104089 114.840416 16.132344 25.428949 2.187437 3.554584c0 1.367148 0 2.460866-2.734296 3.828014l-9.570034 6.28888-9.296606 6.015451a25.428949 25.428949 0 0 1-5.468591 2.734295c-1.914007 0-3.281155 0-4.374873-3.554584a94.059769 94.059769 0 0 0-8.476316-16.405774c-4.374873-7.656028-10.937182-18.046351-19.413499-31.4444a3.828014 3.828014 0 0 1 0-3.281154 3.007725 3.007725 0 0 1 1.367148-2.460866l12.57776-6.835739 85.310023-54.685913-12.57776-5.195162a107.731248 107.731248 0 0 0-19.686928-9.296605v-1.367148l25.428949-18.59321 3.281155-1.367148a201.244158 201.244158 0 0 1 23.514942 9.570035c7.382598 3.828014 11.210612 6.562309 12.030901 8.476317z m5.195162 83.669447a92.419192 92.419192 0 0 1 8.476316-6.835739 133.707056 133.707056 0 0 1 14.218337-10.663753 2.734296 2.734296 0 0 1 4.101444 0l41.014434 64.255947 38.826998 59.060785a3.828014 3.828014 0 0 1-1.367148 5.742021l-21.327506 13.398049a3.554584 3.554584 0 0 1-5.468591-1.640578l-6.562309-10.116894-48.123603 30.350682 33.358406 50.311039c1.914007 2.460866 2.187436 4.101443 0 5.195162l-25.702379 16.132344c-1.640577 0-3.007725 0-4.374873-2.734295l-30.89754-51.951617-49.764181 31.717829 5.195162 8.202887 2.460866 3.828014q0 2.187436-2.460866 4.101443c-3.554584 1.914007-6.562309 4.101443-9.570035 6.01545l-9.023175 6.015451a20.780647 20.780647 0 0 1-4.921732 2.460866c-1.914007 0-3.281155 0-4.648303-4.101444a117.848141 117.848141 0 0 0-10.116894-18.31978c-5.468591-9.570035-14.765196-24.061801-27.342956-44.02216l-36.092702-57.420208c-1.914007-2.734296-1.640577-4.648303 0-6.01545l20.507217-10.663753 54.685913-34.998984-13.671479-19.686929c-1.640577-2.187436-3.554584-4.101443-5.195161-6.01545a2.734296 2.734296 0 0 1 0-4.648303c6.28888-3.828014 12.57776-7.656028 19.140069-11.210612s10.663753-5.195162 12.85119-4.374873 2.460866 3.281155 3.281154 7.929458a66.443384 66.443384 0 0 1 0 6.835739l8.476317 14.218337z m-58.513927 72.458834l-50.857898 32.264688 12.57776 19.686928 50.857898-32.264688z m28.710104 45.115877l-50.584469 32.264689 11.210612 17.772921 50.31104-31.991258z m58.240497-72.458834l-12.30433-19.686928-48.943892 30.89754 12.30433 19.960358z m27.342956 43.201871l-11.210612-17.772921-48.943891 31.17097 11.484041 17.499492zM750.837578 332.770066l-31.17097 21.600936c-2.460866 1.640577-4.374873 1.914007-5.195161 0l-14.491767-22.968084v-2.460866l3.281154-1.914007 35.272414-20.780646c-7.109169-11.484042-13.398049-21.327506-18.59321-29.256963s-9.023176-12.851189-10.663753-14.765197l-5.468591-6.28888c-1.367148-1.914007 0-3.554584 1.367147-4.648302l19.14007-10.390324c6.562309-3.554584 10.663753-4.648303 12.57776-3.828014s2.460866 3.281155 3.281154 7.929458a27.342956 27.342956 0 0 1 0 7.109168l22.968084 38.00671 27.342956-18.593211 3.007725-2.187436h2.734296l14.765196 23.514942v3.007725l-2.460866 1.640578-27.342956 16.679203 20.507217 38.553568 2.460866-18.046351h1.914007a267.140682 267.140682 0 0 1 34.725554 10.663753c11.484042 4.374873 17.226062 7.382598 16.679204 9.296605-1.640577 7.656028-2.734296 13.124619-3.281155 16.132344a104.723522 104.723522 0 0 0 0 11.210613l-21.054076-7.382599a159.682864 159.682864 0 0 0-21.600936-7.929457l82.028869 124.95731c1.914007 2.460866 2.187436 4.374873 0 5.195162l-24.88209 15.858914c-1.640577 0-3.281155 0-4.648303-3.007725l-65.623095-109.371825a362.5676 362.5676 0 0 1 7.382598 51.951617c0 7.109169-1.367148 14.491767-2.187436 21.600935l-14.765197-2.460866c-5.195162 0-9.843464-1.640577-13.944907-2.187436a280.538731 280.538731 0 0 0 0-29.256963 244.172599 244.172599 0 0 0-6.28888-49.764181c-2.187436-10.390323-4.648303-20.507217-7.656028-30.350681s-7.382598-19.686928-10.116894-27.069527z m107.457818-84.489734c-11.210612 6.835739-19.413499 12.30433-24.88209 16.405773l-19.413499 13.671478-4.101443 2.734296h-3.828014l-15.038626-23.788372v-3.281155l4.374873-2.734295 33.905266-19.413499q17.226062-9.843464 36.912991-22.147795c15.585485-9.843464 27.342956-18.046351 37.45985-24.60866l30.077252-21.327506a37.18642 37.18642 0 0 1 6.01545-4.101444 1.914007 1.914007 0 0 1 3.281155 0l15.312055 24.608661v3.281155l-6.01545 3.281154-31.717829 18.319781c-9.296605 5.468591-20.780647 12.30433-34.725555 21.054076v57.967068s0 5.468591-2.187436 14.765196a154.487703 154.487703 0 0 0 21.327505-15.858915 234.055705 234.055705 0 0 0 22.694654-23.241512v-13.671479a59.060785 59.060785 0 0 0 0-9.023175v-5.742021c0-2.187436 0-4.101443 3.828014-5.468591a47.029885 47.029885 0 0 1 22.968083-2.460866c6.562309 0 10.116894 1.640577 10.116894 4.101443a7.656028 7.656028 0 0 1-1.367148 5.742021l-2.734295 4.921732a280.812161 280.812161 0 0 1-3.281155 38.826998 269.601549 269.601549 0 0 1-10.663753 45.662737 278.898154 278.898154 0 0 1-27.342956 61.795081c-10.116894 16.679203-16.679203 24.335231-19.960358 23.514942s-10.937182-3.554584-17.772922-5.468591a20.507217 20.507217 0 0 1-8.202887-3.281155 2.187436 2.187436 0 0 1 0-2.460866l9.843464-10.937182a251.008338 251.008338 0 0 0 33.905266-68.63082l3.828014-12.030901c-7.656028 6.835739-13.124619 12.030901-17.226062 15.038626a114.020128 114.020128 0 0 1-14.218338 10.116894 27.342956 27.342956 0 0 1-4.648302 7.109168 32.264688 32.264688 0 0 1-6.835739 6.835739 6.01545 6.01545 0 0 1-4.648303 0 48.670462 48.670462 0 0 1-13.398048-6.28888 36.639561 36.639561 0 0 1-10.116894-7.109168c0-1.640577 0-4.101443 1.914007-7.382598a22.694654 22.694654 0 0 0 4.648302-6.28888c1.367148-5.195162 1.914007-9.296605 2.460866-12.304331a300.772519 300.772519 0 0 0 1.640578-31.717829v-15.312055c0-6.01545-1.914007-9.023176-2.187437-13.671478z m25.42895-62.068511a115.113846 115.113846 0 0 1-15.858915 16.405774 43.4753 43.4753 0 0 0-7.929457 8.476316 132.066479 132.066479 0 0 1-22.147795-10.390323 80.388291 80.388291 0 0 0-25.428949-8.749746V190.313264a77.107137 77.107137 0 0 1 10.390323-10.937182c6.562309-6.562309 10.116894-10.390323 10.116894-11.484042h1.914007a194.134989 194.134989 0 0 1 33.905266 10.390324z m115.934134 158.589146a198.783292 198.783292 0 0 1 50.857899 0l23.788372 7.109169c0 3.554584-1.640577 6.835739-2.460866 9.296605l-6.015451 19.960358c-9.296605-2.460866-20.507217-4.921732-33.631836-7.109169a122.496444 122.496444 0 0 0-39.920716 0 206.712749 206.712749 0 0 1-30.624111 58.240497 128.511894 128.511894 0 0 1-29.530393 31.4444q-3.281155 2.187436-4.101443 1.640577l-19.14007-7.382598a23.514942 23.514942 0 0 1-8.749746-4.374873 2.460866 2.460866 0 0 1 0-3.007725 112.65298 112.65298 0 0 0 12.304331-10.663753 231.594839 231.594839 0 0 0 27.342956-30.077252 191.400694 191.400694 0 0 0 25.975808-46.483026 192.767841 192.767841 0 0 0 9.843465-51.678187 133.160197 133.160197 0 0 0 0-32.538118c0-2.187436 0-4.921732-1.914007-7.382598a4.921732 4.921732 0 0 1 3.554584-6.01545 60.974792 60.974792 0 0 1 18.046351-2.187437c9.843464 0 15.038626 0 15.312056 4.101443a16.405774 16.405774 0 0 1 0 7.382599 43.4753 43.4753 0 0 1-2.187437 4.921732 230.501121 230.501121 0 0 1 0 27.342956 361.473881 361.473881 0 0 1-9.023175 37.45985z" p-id="4602"></path></svg>