<svg t="1741252240130" class="icon" viewBox="0 0 1024 1024" version="1.1" xmlns="http://www.w3.org/2000/svg" p-id="42258" width="200" height="200"><path d="M512 544c-135.253333 0-245.333333-110.08-245.333333-245.333333S376.746667 53.333333 512 53.333333 757.333333 163.413333 757.333333 298.666667s-110.08 245.333333-245.333333 245.333333z m0-426.666667A181.76 181.76 0 0 0 330.666667 298.666667 181.76 181.76 0 0 0 512 480 181.76 181.76 0 0 0 693.333333 298.666667 181.76 181.76 0 0 0 512 117.333333zM674.986667 970.666667c-16.213333 0-31.573333-5.973333-42.666667-17.066667-13.226667-13.226667-19.2-32.426667-16.213333-52.48l8.106666-57.6c2.133333-14.933333 11.093333-32.426667 21.76-43.52l151.04-151.04c60.586667-60.586667 113.92-26.026667 139.946667 0 22.186667 22.186667 33.706667 46.08 33.706667 69.973333 0 24.32-11.093333 46.933333-33.706667 69.546667l-151.04 151.04c-10.666667 10.666667-28.586667 19.626667-43.52 21.76l-57.6 8.106667c-3.413333 0.853333-6.4 1.28-9.813333 1.28z m191.573333-291.413334c-7.68 0-14.506667 5.12-24.32 14.933334l-151.04 151.04a16.213333 16.213333 0 0 0-3.413333 7.253333l-7.68 53.333333 53.333333-7.68c1.706667-0.426667 5.973333-2.56 7.253333-3.84l151.04-151.04c6.826667-6.826667 14.933333-16.64 14.933334-24.32 0-6.4-5.12-15.36-14.933334-24.746666-10.24-10.24-17.92-14.933333-25.173333-14.933334z" p-id="42259"></path><path d="M892.586667 820.053333c-2.986667 0-5.973333-0.426667-8.533334-1.28a169.685333 169.685333 0 0 1-116.906666-116.906666c-4.693333-17.066667 5.12-34.56 22.186666-39.253334 17.066667-4.693333 34.56 5.12 39.253334 22.186667 9.813333 34.986667 37.546667 62.72 72.533333 72.533333a31.957333 31.957333 0 0 1-8.533333 62.72zM145.493333 970.666667c-17.493333 0-32-14.506667-32-32 0-182.186667 178.773333-330.666667 398.506667-330.666667 46.506667 0 92.586667 6.826667 135.68 19.626667 17.066667 5.12 26.453333 23.04 21.333333 39.68-5.12 17.066667-23.04 26.453333-39.68 21.333333-37.546667-11.093333-76.8-17.066667-117.333333-17.066667-184.32 0-334.506667 119.466667-334.506667 266.666667 0 17.92-14.506667 32.426667-32 32.426667z" p-id="42260"></path></svg>