<svg t="1741251178729" class="icon" viewBox="0 0 1241 1024" version="1.1" xmlns="http://www.w3.org/2000/svg" p-id="28236" width="200" height="200"><path d="M157.420108 243.662502H150.904869v219.316978h6.515239V243.662502z m0 323.698465c-4.143952 4.253776-6.515239 10.263202-6.515239 17.462139 0 7.195843 2.371287 13.203722 6.515239 17.459045V567.360967z m-0.900254 195.597921l0.193353-33.131504c-3.696918 4.196544-5.808338 9.902792-5.808338 16.674803 0 6.65136 2.035625 12.280266 5.614985 16.456701zM662.645002 898.706949v74.772108H77.797147V174.030502h79.622961V125.293051h-79.622961C50.995262 125.293051 29.062791 147.227069 29.062791 174.030502v560.477583l-1.191058 240.756012c0 26.809619 21.934018 48.73745 48.73745 48.73745h585.673861c26.809619 0 48.73745-21.927831 48.737451-48.73745l0.111371-76.557148h-48.486864z" p-id="28237"></path><path d="M285.709365 184.883045h-0.230478v219.316979h0.230478V184.883045z m0 344.743058v-7.164907c-0.136121 1.161668-0.230477 2.349631-0.230478 3.582454s0.094356 2.420785 0.230478 3.582453zM797.21902 839.927492v74.772109H212.371165V115.251045h73.336653V66.513595H212.371165C185.56928 66.513595 163.636809 88.447613 163.636809 115.251045v560.477583l-1.191058 240.756012c0 26.809619 21.934018 48.73745 48.73745 48.737451h585.673861c26.809619 0 48.73745-21.927831 48.737451-48.737451l0.111371-76.557148h-48.486864z" p-id="28238"></path><path d="M916.80273 0H331.956422c-26.803432 0-48.735903 21.934018-48.735903 48.73745v560.477583l-1.191058 240.756012c0 26.809619 21.934018 48.73745 48.73745 48.73745h585.673861c26.809619 0 48.73745-21.927831 48.737451-48.73745l0.35577-240.756012v-560.477583C965.533993 21.934018 943.606162 0 916.80273 0z m0 848.184459H331.956422V48.735903h584.846308v799.448556zM843.698102 118.367903H405.064144v219.316979h438.633958V118.367903z m-48.73745 170.581076H453.800047V167.1069h341.160605v121.842079zM429.431322 483.897233H600.010851c14.622163 0 24.368725-9.751202 24.368725-24.367179 0-14.62371-9.746562-24.368725-24.368725-24.368725H429.431322c-14.622163 0-24.368725 9.745015-24.368725 24.368725 0 14.615976 9.746562 24.367178 24.368725 24.367179z m389.898055-48.735904h-121.843626c-14.622163 0-24.368725 9.745015-24.368725 24.368725 0 14.615976 9.746562 24.367178 24.368725 24.367179h121.843626c14.615976 0 24.368725-9.751202 24.368725-24.367179 0-14.62371-9.752749-24.368725-24.368725-24.368725z m-389.898055 210.414985h198.703952l49.940882-48.73745H429.431322c-14.622163 0-24.368725 9.746562-24.368725 24.368725 0 14.617523 9.746562 24.368725 24.368725 24.368725zM790.610972 547.685317L622.848217 711.613486 575.323479 663.202417c-10.213704-10.465837-23.999033-10.628254-34.458682-0.41919-10.465837 10.212157-10.632894 23.994393-0.419191 34.458682l63.863879 65.153934c5.961474 6.108423 13.146489 8.682344 20.176822 7.752701 5.531456-0.323287 11.033523-2.795118 15.830236-7.480459l184.337015-180.100254c10.45965-10.209063 10.62516-24.003674 0.41919-34.461777-10.213704-10.465837-23.999033-10.628254-34.461776-0.420737z" p-id="28239"></path></svg>