<svg t="1741253435320" class="icon" viewBox="0 0 1024 1024" version="1.1" xmlns="http://www.w3.org/2000/svg" p-id="57657" width="200" height="200"><path d="M962.56 819.2v-51.2l56.32-35.84-20.48-56.32-66.56 15.36c-10.24-10.24-20.48-25.6-30.72-35.84 5.12-20.48 10.24-46.08 15.36-66.56l-56.32-20.48-35.84 61.44h-51.2l-35.84-61.44-51.2 20.48-5.12-5.12c5.12 25.6 10.24 46.08 15.36 66.56l-35.84 35.84c-20.48-5.12-46.08-10.24-66.56-15.36l-30.72 61.44 56.32 35.84v51.2c-20.48 10.24-40.96 25.6-56.32 40.96 5.12 15.36 15.36 35.84 20.48 51.2l66.56-15.36c10.24 15.36 25.6 25.6 35.84 35.84-5.12 20.48-10.24 46.08-15.36 66.56 15.36 10.24 35.84 15.36 56.32 20.48 15.36-20.48 25.6-35.84 35.84-56.32h51.2l35.84 61.44 51.2-20.48c-5.12-20.48-10.24-46.08-10.24-66.56l35.84-35.84 66.56 15.36c5.12-20.48 15.36-35.84 25.6-56.32-15.36-15.36-35.84-25.6-56.32-40.96z m-148.48 81.92c-56.32 10.24-117.76-25.6-128-87.04-10.24-56.32 25.6-117.76 87.04-128h10.24c61.44-5.12 112.64 40.96 117.76 102.4 5.12 51.2-30.72 102.4-87.04 112.64zM40.96 184.32h824.32c25.6 0 40.96-15.36 40.96-40.96s-20.48-40.96-40.96-40.96H40.96c-20.48 5.12-40.96 25.6-40.96 46.08s20.48 35.84 40.96 35.84zM30.72 414.72h716.8c15.36 0 30.72-15.36 30.72-40.96 0-20.48-15.36-40.96-30.72-40.96H30.72c-15.36 5.12-30.72 25.6-30.72 46.08s15.36 35.84 30.72 35.84zM30.72 645.12h512c15.36 0 30.72-15.36 30.72-40.96 0-20.48-15.36-40.96-30.72-40.96H30.72c-15.36 0-30.72 15.36-30.72 40.96s15.36 40.96 30.72 40.96zM30.72 875.52h358.4c15.36 0 30.72-15.36 30.72-40.96s-15.36-40.96-30.72-40.96h-358.4c-15.36 5.12-30.72 25.6-30.72 46.08s15.36 35.84 30.72 35.84z" p-id="57658"></path></svg>