<svg t="1741249083118" class="icon" viewBox="0 0 1024 1024" version="1.1" xmlns="http://www.w3.org/2000/svg" p-id="14422" width="200" height="200"><path d="M621 83.3c24-1.4 43.5 18.4 40.2 42.8v183.4c3.3 24.4-16.2 44.2-40.2 45.6H401.9c-24-1.4-43.5-21.2-39.2-45.6V126.1c-4.3-24.4 15.2-44.2 39.2-42.8H621z m240.9 449.9v135.6h57.3c24 1.4 43.5 21.2 40.4 45.6v183.4c3.1 24.4-16.4 44.2-40.4 42.8H738.7c-24 1.4-43.5-18.4-46.6-42.8V714.5c3.1-24.4 22.6-44.2 46.6-45.6h51.1V556.4c4.1-12.2-5.5-22.1-17.6-23.5H542.9v135.9h59.4c24 1.4 43.5 21.2 43.5 45.6v183.4c0 24.4-19.5 44.2-43.5 42.8H421.7c-24 1.4-43.5-18.4-43.5-42.8V714.5c0-24.4 19.5-44.2 43.5-45.6h59.4v-136H251.4c-12 1.6-21.7 11.4-17.3 23.6v112.3h51.1c24 1.4 43.5 21.2 46.6 45.6v183.4c-3.1 24.4-22.6 44.2-46.6 42.8H104.8c-24 1.4-43.5-18.4-40.4-42.8V714.5c-3.1-24.4 16.4-44.2 40.4-45.6h57.3V533.3c-1.9-38.5 28.8-69.6 66.6-68.4h252.4V355.1h61.7v109.8h252.3c38-1.3 68.7 29.9 66.8 68.3z" p-id="14423"></path></svg>