<svg t="1741254624538" class="icon" viewBox="0 0 1024 1024" version="1.1" xmlns="http://www.w3.org/2000/svg" p-id="59749" width="200" height="200"><path d="M887.03 902.25c-15.63-5.55-32.86-12.74-46.82-26.25-45.83-44.38-65.39-108.58-49.41-168l0.07-0.27c1.39-5.14 3.05-10.26 4.99-15.32 2.8-7.34 6.18-14.57 10.15-21.64 4.52-8.05-0.92-18.77-10.15-18.77H246c-31.67 0-60.55 10.91-84 28.63V176c0-15.46 12.54-28 28-28h280c15.46 0 28-12.54 28-28s-12.54-28-28-28H190c-46.39 0-84 37.61-84 84v616c0 77.32 62.68 140 140 140h628.25c30.93 0 41.92-19.4 12.78-29.75zM246 876c-46.39 0-84-37.61-84-84s37.61-84 84-84h486.99c-11.92 59.01 1.9 118.86 34.86 168H246zM685.31 389.42c0.82 0.67 1.34 1.58 2.26 2.16l65.75 44.78c13.44 8.63 31.36 4.28 39.34-9.55 7.46-12.93 3.46-29.45-9.11-37.52L722 347.38V238.56c0-15.46-12.54-28-28-28s-28 12.54-28 28l0.01 124.62c0 12.38 8.17 22.55 19.3 26.24z" p-id="59750"></path><path d="M694 568c123.71 0 224-100.29 224-224S817.71 120 694 120 470 220.29 470 344s100.29 224 224 224z m0-392c92.79 0 168 75.22 168 168s-75.21 168-168 168c-92.78 0-168-75.22-168-168s75.22-168 168-168z" p-id="59751"></path></svg>