<svg t="1741252771274" class="icon" viewBox="0 0 1024 1024" version="1.1" xmlns="http://www.w3.org/2000/svg" p-id="45178" width="200" height="200"><path d="M963.166818 860.115483l-332.498051-1.397541L983.424476 512.622751c20.622552-20.622552 20.622552-54.185435 0-74.827448L649.740522 104.13081c-20.622552-20.640796-54.185435-20.622552-74.809203 0L52.788502 626.238354c-20.603091 20.642013-20.622552 54.20368 0 74.826231L214.244046 862.470261l-153.410864-2.354778c-21.639388 0-39.170077 17.531906-39.170077 39.171293l0-2.949554c0 21.640604 17.530689 39.171293 39.170077 39.171293l902.333635 0c21.621143 0 39.170077-17.530689 39.170077-39.171293l0 2.949554C1002.336894 877.648605 984.78796 860.115483 963.166818 860.115483L963.166818 860.115483zM313.696925 896.727658l-59.121225-59.121225 0 0L85.411177 668.460155c-2.630881-2.647909-2.668586-6.950001 0-9.618587l522.106327-522.106327c2.668586-2.668586 6.969462-2.630881 9.618587 0l333.664493 333.682738c2.650341 2.669802 2.650341 6.931756 0.019461 9.582097L593.211256 837.606433l-59.120009 59.121225L313.696925 896.727658 313.696925 896.727658 313.696925 896.727658zM614.334927 193.033408c-13.767423-1.631073-26.575177 8.122524-28.3218 22.005497l-47.908054 380.45719L162.216347 637.891829c-13.921895 1.575123-23.924836 14.114072-22.350929 28.03475 1.459573 12.959793 12.442861 22.523646 25.172771 22.523646 0.941425 0 1.901094-0.037706 2.86198-0.154471l395.721892-44.625231c11.654691-1.303885 20.873112-10.425001 22.331468-22.023742l50.384464-400.272112C638.087047 207.473451 628.234929 194.781247 614.334927 193.033408L614.334927 193.033408z" p-id="45179"></path></svg>