<svg t="1741250147343" class="icon" viewBox="0 0 1024 1024" version="1.1" xmlns="http://www.w3.org/2000/svg" p-id="18980" width="200" height="200"><path d="M482.2656 696.6784l-212.765867 212.770133a27.733333 27.733333 0 1 1-39.223466-39.223466l173.546666-173.546667h78.442667z m129.591467 0l173.546666 173.546667a27.733333 27.733333 0 1 1-39.223466 39.223466l-212.765867-212.770133h78.442667z" p-id="18981"></path><path d="M882.005333 230.4c0.785067 4.1472 1.194667 8.426667 1.194667 12.8v435.2c0 37.704533-30.562133 68.266667-68.266667 68.266667H209.066667c-37.704533 0-68.266667-30.562133-68.266667-68.266667V243.2c0-4.373333 0.4096-8.6528 1.194667-12.8H125.866667a27.733333 27.733333 0 1 1 0-55.466667h772.266666a27.733333 27.733333 0 1 1 0 55.466667h-16.128z m-51.272533 0H193.2672A8.878933 8.878933 0 0 0 192 234.986667v451.626666c0 4.8896 3.925333 8.853333 8.768 8.853334h622.464c4.842667 0 8.768-3.968 8.768-8.853334V234.986667c0-1.6768-0.465067-3.246933-1.2672-4.586667zM268.8 337.066667h179.2a25.6 25.6 0 0 1 0 51.2H268.8a25.6 25.6 0 1 1 0-51.2z m0 153.6h439.466667a25.6 25.6 0 0 1 0 51.2H268.8a25.6 25.6 0 0 1 0-51.2z m268.8-153.6h17.066667a25.6 25.6 0 0 1 0 51.2h-17.066667a25.6 25.6 0 0 1 0-51.2z" p-id="18982"></path></svg>