<svg t="1741252929022" class="icon" viewBox="0 0 1024 1024" version="1.1" xmlns="http://www.w3.org/2000/svg" p-id="47214" width="200" height="200"><path d="M713.856 659.882667a35.541333 35.541333 0 0 1 1.962667-0.64l54.954666-54.186667a35.626667 35.626667 0 0 1 50.389334 0.256 35.413333 35.413333 0 0 1-0.256 50.218667l-56.064 55.253333 56.064 55.893333a35.285333 35.285333 0 0 1-25.216 60.501334 35.285333 35.285333 0 0 1-25.173334-10.368L711.68 758.186667l-55.637333 55.893333a35.754667 35.754667 0 0 1-25.386667 10.666667 34.986667 34.986667 0 0 1-25.002667-10.410667 35.413333 35.413333 0 0 1-0.213333-50.218667l55.893333-56.149333-52.650666-52.48a35.285333 35.285333 0 0 1 0-50.261333 35.541333 35.541333 0 0 1 50.346666 0l54.826667 54.698666zM595.072 92.672H158.08a65.28 65.28 0 0 0-65.28 65.109333v641.877334a65.28 65.28 0 0 0 65.28 65.109333h307.285333A286.890667 286.890667 0 0 1 422.4 713.386667c0-159.488 130.133333-289.28 290.133333-289.28 159.957333 0 290.133333 129.792 290.133334 289.28 0 159.488-130.176 289.28-290.133334 289.28a289.365333 289.365333 0 0 1-187.861333-68.992 35.882667 35.882667 0 0 1-12.416 2.176H157.952A136.704 136.704 0 0 1 21.333333 799.658667V157.781333A136.704 136.704 0 0 1 157.952 21.589333h468.650667a36.053333 36.053333 0 0 1 8.277333 0h13.397333c4.906667 0 9.557333 0.981333 13.781334 2.730667 9.045333 0 18.133333 3.413333 25.088 10.24l264.405333 260.053333v120.789334a35.626667 35.626667 0 0 1-71.296 0.128V344.832H731.733333a136.704 136.704 0 0 1-136.661333-136.234667V92.672z m71.338667 21.290667v94.634666a65.28 65.28 0 0 0 65.28 65.152h97.066666L666.410667 113.92z m46.08 381.013333c-120.704 0-218.88 97.92-218.88 218.282667 0 120.362667 98.176 218.453333 218.88 218.453333 120.746667 0 219.008-97.962667 219.008-218.325333 0-120.32-98.261333-218.410667-218.965334-218.410667z m-188.885334-125.013333H234.538667a35.626667 35.626667 0 0 1-35.669334-35.541334c0-19.584 16.042667-35.541333 35.669334-35.541333h289.066666c19.754667 0 35.669333 15.957333 35.669334 35.541333a35.626667 35.626667 0 0 1-35.669334 35.541334zM352.64 567.893333H234.538667a35.626667 35.626667 0 0 1-35.669334-35.541333c0-19.669333 16.042667-35.541333 35.669334-35.541333h118.101333a35.541333 35.541333 0 1 1 0 71.082666z" p-id="47215"></path></svg>