<svg t="1741251300230" class="icon" viewBox="0 0 1024 1024" version="1.1" xmlns="http://www.w3.org/2000/svg" p-id="34790" width="200" height="200"><path d="M317.44 481.28h307.2v61.44H317.44zM92.16 604.16h184.32V419.84H92.16v184.32z m61.44-122.88h61.44v61.44h-61.44v-61.44zM317.44 727.04h307.2v61.44H317.44zM92.16 849.92h184.32V665.6H92.16v184.32z m61.44-122.88h61.44v61.44h-61.44v-61.44zM317.44 235.52h307.2v61.44H317.44zM92.16 358.4h184.32V174.08H92.16v184.32z m61.44-122.88h61.44v61.44h-61.44v-61.44z" p-id="34791"></path><path d="M716.8 512V0H0v839.68c0 101.79584 82.52416 184.32 184.32 184.32h655.36c101.79584 0 184.32-82.52416 184.32-184.32V512H716.8zM61.44 839.68V61.44h593.92v778.24c0 47.27808 17.95072 90.25536 47.21664 122.88H184.32c-67.75808 0-122.88-55.12192-122.88-122.88z m901.12 0c0 67.75808-55.12192 122.88-122.88 122.88s-122.88-55.12192-122.88-122.88V573.44h245.76v266.24z"  p-id="34792"></path></svg>