<svg t="1741835705726" class="icon" viewBox="0 0 1061 1024" version="1.1" xmlns="http://www.w3.org/2000/svg" p-id="1643" width="200" height="200"><path d="M931.488208 248.887019c0.985992-9.78407-7.205323-20.099058-17.179006-25.180707L475.239583 2.692515a24.687711 24.687711 0 0 0-22.450269 0L13.947232 223.744235c-16.306783 10.770061-13.765959 34.661395-13.765959 37.164296v471.759031c0 8.722233 4.512807 16.913547 12.059435 21.540123 0 0 429.399317 261.363604 436.794254 264.700806 15.055332 7.508705 24.53602 5.460876 31.627575 1.820292l142.968773-83.278362c12.173203-7.205323 13.159195-18.127075 11.56644-37.012606-1.592756-18.809685-17.899539-29.048828-29.883129-22.071041-12.059435 6.901941-106.562932 64.241141-106.562932 64.241141v-430.802459l378.658675-222.075633 39.81889-24.270561c7.925855-5.157494 13.121272-11.756053 14.183109-16.53432h0.075845zM430.642427 937.336653l-364.930639-224.047617V300.917034l364.854794 211.002191v425.341582l0.075845 0.075846z m33.372022-494.133454L116.907503 244.980976l347.106946-174.672194 347.0311 174.672194-346.993178 198.1843z m570.737412 348.282551l-195.074634 117.939757c-10.921752 7.660396-22.450269-0.910146-22.450269-0.910146-1.061837-0.227537-194.240334-117.029612-194.240334-117.029611a18.847608 18.847608 0 0 1-9.101461-16.155092v-210.8505c0-6.826095 3.488893-18.733839 17.330698-24.11887l189.23453-105.425249a19.340603 19.340603 0 0 1 16.572243 0l189.49999 105.425249h-1.51691c0.530919 0 1.289374 0 1.820292 0.303382l4.929958 2.502902c6.143486 2.957975 11.869821 8.343005 11.869821 15.927556v216.159684a19.15099 19.15099 0 0 1-8.873924 16.230938z m-347.751633-230.722021l140.693409 79.561933 142.741237-79.561933-142.741237-79.182706-140.693409 79.182706z m168.718322 288.212912l143.840997-87.37402v-157.303573L855.71855 686.401805v162.536913z m-51.0061-2.578747V687.16026L663.677736 606.764026v153.966372l141.072636 85.705419v-0.075846z" p-id="1644"></path></svg>