<svg t="1741252112889" class="icon" viewBox="0 0 1462 1024" version="1.1" xmlns="http://www.w3.org/2000/svg" p-id="40355" width="200" height="200"><path d="M292.605701 941.709081s59.976672-364.138853 179.271734-364.138853c119.51449 0 105.324887 101.740915 195.070468 101.740915 89.818723 0 126.975002-313.634107 247.586626-313.634108 120.575053 0 255.924846 576.214901 255.924846 576.214902H292.605701v-0.182856z m182.96542-722.462895A109.567139 109.567139 0 0 1 585.13826 329.069323C585.13826 389.777417 536.169502 438.855889 475.461407 438.855889c-60.598381 0-109.676853-49.005329-109.676852-109.713424 0-60.817808 49.078472-109.786566 109.713423-109.786566l0.073143-0.073142zM1170.276519 0.002194H292.532559A72.008577 72.008577 0 0 0 241.076963 21.213456c-13.750749 13.714178-21.576973 32.402031-21.7964 52.004163v877.634247a73.142282 73.142282 0 0 0 73.251996 73.142283h877.853674a71.386868 71.386868 0 0 0 51.528738-21.101549A73.873705 73.873705 0 0 0 1243.638229 950.851866V73.144477a74.714842 74.714842 0 0 0-21.869543-52.004163A72.081719 72.081719 0 0 0 1170.203377 0.002194h0.109713z m146.174852 219.426848h73.763992C1430.443618 219.429042 1462.845649 252.562496 1462.845649 292.205613V731.425019a74.495415 74.495415 0 0 1-21.576973 51.638451 71.862293 71.862293 0 0 1-51.016742 21.247833h-73.763992V219.319328 219.429042zM146.284565 219.429042H72.593715a72.045148 72.045148 0 0 0-50.943599 21.284404A74.641699 74.641699 0 0 0 0 292.278755V731.425019c0 39.899115 32.548316 72.886284 72.593715 72.886284h73.763992V219.319328L146.284565 219.429042z" p-id="40356"></path></svg>