<svg t="1741249337586" class="icon" viewBox="0 0 1024 1024" version="1.1" xmlns="http://www.w3.org/2000/svg" p-id="15451" width="200" height="200"><path d="M606.816 960l-86.176-146.144 49.632-29.856-49.6-29.856 105.28-178.56 53.056 27.136 1.632-49.216C618.112 507.008 543.52 480 463.424 480 242.816 480 64 684.8 64 937.408c0 7.584 0.16 15.104 0.48 22.592h542.336z"  p-id="15452"></path><path d="M742.72 611.936l0.16-3.936h84.064l0.128 3.936c2.08 31.232 28.864 55.968 61.6 55.968 9.312 0 18.144-2.016 26.048-5.568l4.64-2.336 42.432 72-3.616 2.176a59.392 59.392 0 0 0-27.456 49.824c0 20.768 10.88 39.04 27.456 49.824l3.616 2.176-42.432 72-4.64-2.336a62.848 62.848 0 0 0-20.512-5.312l-5.504-0.256-4.256 0.16c-30.784 2.016-55.36 25.92-57.376 55.808l-0.128 3.936h-84.064l-0.16-3.936c-2.08-31.232-28.864-55.968-61.6-55.968-9.568 0-18.624 2.112-26.688 5.888l-3.968 2.016L608 836l3.616-2.176c16.576-10.752 27.456-29.056 27.456-49.824 0-20.768-10.88-39.04-27.456-49.824L608 732l42.464-72 3.936 2.016c8.096 3.776 17.152 5.888 26.72 5.888 32.736 0 59.52-24.736 61.632-55.968z m42.176 222.336c27.936 0 50.56-22.496 50.56-50.272s-22.624-50.304-50.56-50.304c-27.904 0-50.56 22.528-50.56 50.304 0 27.776 22.656 50.272 50.56 50.272z"  p-id="15453"></path><path d="M288 256a192 192 0 1 0 384 0A192 192 0 0 0 288 256z" p-id="15454"></path></svg>