<svg t="1741589408483" class="icon" viewBox="0 0 1024 1024" version="1.1" xmlns="http://www.w3.org/2000/svg" p-id="1478" width="200" height="200"><path d="M916.48 681.984c-0.512-8.192-6.656-14.848-14.848-16.384h-0.512c-34.304-8.704-55.808-43.008-47.104-77.312 0-1.024 0.512-2.048 0.512-2.56 3.072-7.68 0.512-16.384-6.144-21.504-18.944-17.92-41.984-31.744-67.072-39.936-6.656-3.072-14.848-1.024-22.016 5.632-11.264 13.824-28.672 20.992-46.08 20.48-16.896 0-32.256-7.68-46.08-21.504a19.8144 19.8144 0 0 0-22.016-5.12c-24.064 9.728-46.08 22.528-66.048 38.912-7.168 4.608-9.728 13.824-6.656 21.504 5.12 17.408 3.072 35.84-6.144 51.712-9.216 14.336-23.552 25.088-40.448 29.184-1.024 0-1.024 0-2.048 1.024-6.144 3.072-10.752 8.192-12.8 14.848v1.024c-2.56 13.312-4.096 26.624-4.096 39.936 0 12.8 1.024 26.112 4.096 38.912 0.512 8.192 6.656 14.848 14.848 16.384h1.024c34.304 8.704 55.808 43.008 47.104 77.312 0 1.024-0.512 1.536-0.512 2.56-3.072 7.68-0.512 16.384 6.144 21.504 19.456 17.92 42.496 31.744 68.096 39.936 1.024 0 2.048 1.024 4.096 1.024h3.072c6.144 0 11.776-2.56 15.872-6.656 11.776-13.312 28.672-20.48 46.592-19.968 16.896 0 32.256 7.68 46.08 21.504 3.584 4.096 8.704 6.144 13.824 6.656 2.56 0 4.608 0 6.656-1.024 24.064-9.728 46.08-22.528 66.048-38.912 7.168-4.608 9.728-13.824 6.656-21.504-5.12-17.408-3.072-35.84 6.144-51.712 9.216-14.336 23.552-25.088 40.448-29.184 1.024 0 1.024 0 2.048-1.024 6.144-3.072 10.752-8.192 12.8-14.848v-1.024c2.56-13.312 4.096-26.624 4.096-39.936-1.024-13.312-2.56-26.624-5.632-39.936z m-202.752 107.008c-37.888 0-69.12-30.72-69.12-68.096 0-37.888 30.72-68.096 69.12-68.096s69.12 30.72 69.12 68.096c0 37.376-30.208 68.096-68.096 68.096h-1.024z" p-id="1479"></path><path d="M482.816 857.6c-15.36-26.112-35.84-41.472-64-47.616h-1.536c-12.8-2.56-22.016-13.312-23.04-26.112-4.608-20.48-6.656-40.96-6.144-61.44 0-20.992 2.048-42.496 6.144-62.976v-1.536c3.584-9.728 10.752-17.92 19.968-23.04 1.536-1.536 1.536-1.536 3.072-1.536 28.16-7.68 51.2-24.576 64-46.08 13.824-25.088 17.408-54.272 9.216-81.408-4.608-12.288 0-26.112 10.752-33.792 31.232-25.6 66.56-46.592 103.936-61.44 11.776-4.608 25.6-1.536 34.304 7.68 22.016 21.504 46.592 33.792 73.216 33.792 17.92 0.512 35.328-4.096 51.2-12.8V184.32c0-45.056-36.864-81.92-82.944-81.92H184.32c-45.056 0-81.92 36.864-81.92 81.92v655.36c0 45.056 36.864 81.92 82.944 81.92h310.784c3.072-22.016-1.536-45.056-13.312-64zM226.304 389.12V154.112h206.848V389.12L329.728 327.68 226.304 389.12z" p-id="1480"></path></svg>