<svg t="1741249790588" class="icon" viewBox="0 0 1219 1024" version="1.1" xmlns="http://www.w3.org/2000/svg" p-id="17782" width="200" height="200"><path d="M1160.319441 995.121419l-145.531591 27.533004c-39.332862 7.866572-78.665725-19.666431-82.599011-58.999294l-141.598304-786.657248c-7.866572-39.332862 19.666431-78.665725 58.999293-82.599011l141.598305-27.533004c39.332862-7.866572 78.665725 19.666431 82.599011 58.999294l141.598305 786.657248c11.799859 39.332862-15.733145 74.732439-55.066008 82.599011zM314.662899 78.665725c0-43.266149-35.399576-78.665725-78.665725-78.665725H78.665725C35.399576 0 0 35.399576 0 78.665725v865.322973c0 43.266149 35.399576 78.665725 78.665725 78.665725h157.331449c43.266149 0 78.665725-35.399576 78.665725-78.665725V78.665725zM196.664312 668.658661H117.998587c-23.599717 0-39.332862-15.733145-39.332862-39.332862s15.733145-39.332862 39.332862-39.332863h78.665725c23.599717 0 39.332862 15.733145 39.332862 39.332863s-15.733145 39.332862-39.332862 39.332862z m0-157.33145H117.998587c-23.599717 0-39.332862-15.733145-39.332862-39.332862s15.733145-39.332862 39.332862-39.332862h78.665725c23.599717 0 39.332862 15.733145 39.332862 39.332862s-15.733145 39.332862-39.332862 39.332862z m0-157.331449H117.998587c-19.666431 0-39.332862-15.733145-39.332862-39.332863s15.733145-39.332862 39.332862-39.332862h78.665725c23.599717 0 39.332862 15.733145 39.332862 39.332862s-15.733145 39.332862-39.332862 39.332863zM707.991523 78.665725c0-43.266149-35.399576-78.665725-78.665724-78.665725h-157.33145c-43.266149 0-78.665725 35.399576-78.665725 78.665725v865.322973c0 43.266149 35.399576 78.665725 78.665725 78.665725h157.33145c43.266149 0 78.665725-35.399576 78.665724-78.665725V78.665725z m-117.998587 511.327211h-78.665725c-23.599717 0-39.332862-15.733145-39.332862-39.332862s15.733145-39.332862 39.332862-39.332863h78.665725c23.599717 0 39.332862 15.733145 39.332863 39.332863s-15.733145 39.332862-39.332863 39.332862z m0-157.331449h-78.665725c-23.599717 0-39.332862-15.733145-39.332862-39.332863s15.733145-39.332862 39.332862-39.332862h78.665725c23.599717 0 39.332862 15.733145 39.332863 39.332862s-15.733145 39.332862-39.332863 39.332863z" p-id="17783"></path></svg>